<?xml version="1.0" encoding="UTF-8" standalone="no"?><!-- Generator: Gravit.io --><svg xmlns="http://www.w3.org/2000/svg" xmlns:xlink="http://www.w3.org/1999/xlink" style="isolation:isolate" viewBox="0 0 1000 1000" width="1000pt" height="1000pt"><defs><clipPath id="_clipPath_RjP5e5thkIBc64AtATJaDBggZ8qBbqeQ"><rect width="1000" height="1000"/></clipPath></defs><g clip-path="url(#_clipPath_RjP5e5thkIBc64AtATJaDBggZ8qBbqeQ)"><g style="isolation:isolate"><rect x="44" y="450" width="556" height="100" transform="matrix(1,0,0,1,0,0)" fill="rgb(138,26,53)"/><path d="M 0 900 L 1000 900 L 1000 975 C 1000 988.798 988.798 1000 975 1000 L 25 1000 C 11.202 1000 0 988.798 0 975 L 0 900 Z" style="stroke:none;fill:#8A1A35;stroke-miterlimit:10;"/><rect x="300" y="675" width="400" height="100" transform="matrix(1,0,0,1,0,0)" fill="rgb(138,26,53)"/><rect x="400" y="0" width="239" height="100" transform="matrix(1,0,0,1,0,0)" fill="rgb(138,26,53)"/><rect x="300" y="225" width="700" height="100" transform="matrix(1,0,0,1,0,0)" fill="rgb(138,26,53)"/><rect x="600" y="0" width="100" height="550" transform="matrix(1,0,0,1,0,0)" fill="rgb(138,26,53)"/><rect x="150" y="0" width="100" height="1000" transform="matrix(1,0,0,1,0,0)" fill="rgb(138,26,53)"/></g><g style="isolation:isolate"><path d="M 600 500 L 700 500 L 700 950 L 650 1000 L 600 1000 L 600 500 Z" style="stroke:none;fill:#CB1B45;stroke-miterlimit:10;"/><path d="M 919 0 L 981 0 C 991.486 0 1000 8.514 1000 19 L 1000 531 C 1000 541.486 991.486 550 981 550 L 919 550 C 908.514 550 900 541.486 900 531 L 900 19 C 900 8.514 908.514 0 919 0 Z" style="stroke:none;fill:#CB1B45;stroke-miterlimit:10;"/><rect x="600" y="675" width="400" height="100" transform="matrix(1,0,0,1,0,0)" fill="rgb(203,27,69)"/><rect x="50" y="0" width="350" height="100" transform="matrix(1,0,0,1,0,0)" fill="rgb(203,27,69)"/><path d="M 600 0 L 933 0 L 933 100 L 650 100 L 600 50 L 600 0 Z" style="stroke:none;fill:#CB1B45;stroke-miterlimit:10;"/><rect x="600" y="450" width="350" height="100" transform="matrix(1,0,0,1,0,0)" fill="rgb(203,27,69)"/><path d="M 19.612 450 L 100 450 L 100 600 L 50 650 L 20 650 C 8.962 650 0 641.038 0 630 L 0 469.612 C 0 458.788 8.788 450 19.612 450 Z" style="stroke:none;fill:#CB1B45;stroke-miterlimit:10;"/><path d="M 19.612 0 L 100 0 L 100 150 L 50 200 L 20 200 C 8.962 200 0 191.038 0 180 L 0 19.612 C 0 8.788 8.788 0 19.612 0 Z" style="stroke:none;fill:#CB1B45;stroke-miterlimit:10;"/><path d="M 300 0 L 400 0 L 400 950 L 350 1000 L 300 1000 L 300 0 Z" style="stroke:none;fill:#CB1B45;stroke-miterlimit:10;"/></g></g></svg>